rotated_Sprint_05400001_forces_filt50Hz.mot
version=1
nRows=19
nColumns=19
inDegrees=yes
endheader
time	R_ground_force_vx	R_ground_force_vy	R_ground_force_vz	R_ground_force_px	R_ground_force_py	R_ground_force_pz	R_ground_torque_x	R_ground_torque_y	R_ground_torque_z	L_ground_force_vx	L_ground_force_vy	L_ground_force_vz	L_ground_force_px	L_ground_force_py	L_ground_force_pz	L_ground_torque_x	L_ground_torque_y	L_ground_torque_z	
0.000000	209.159167	2226.083665	-97.963648	  0.788376	  0.000000	 -0.264520	  0.000000	 67.500391	  0.000000	  0.000000	  0.000000	  0.000000	  0.604550	  0.000000	 -0.480320	  0.000000	  0.000000	  0.000000
0.000500	211.568879	2217.323809	-93.221310	  0.787611	  0.000000	 -0.264347	  0.000000	 64.136672	  0.000000	  0.000000	  0.000000	  0.000000	  0.605819	 -0.000000	 -0.478337	  0.000000	  0.000000	  0.000000
0.001000	214.058739	2208.202131	-88.437579	  0.786820	  0.000000	 -0.264173	  0.000000	 60.710726	  0.000000	  0.000000	  0.000000	  0.000000	  0.607089	 -0.000000	 -0.476355	  0.000000	  0.000000	  0.000000
0.001500	216.627151	2198.716860	-83.623232	  0.786002	  0.000000	 -0.263998	  0.000000	 57.228914	  0.000000	  0.000000	  0.000000	  0.000000	  0.608358	 -0.000000	 -0.474372	  0.000000	  0.000000	  0.000000
0.002000	219.272034	2188.866293	-78.789043	  0.785157	  0.000000	 -0.263822	  0.000000	 53.698089	  0.000000	  0.000000	  0.000000	  0.000000	  0.609627	 -0.000000	 -0.472390	  0.000000	  0.000000	  0.000000
0.002500	221.990758	2178.648673	-73.945629	  0.784286	  0.000000	 -0.263647	  0.000000	 50.125575	  0.000000	  0.000000	  0.000000	  0.000000	  0.610896	  0.000000	 -0.470407	  0.000000	  0.000000	  0.000000
0.003000	224.780137	2168.062092	-69.103310	  0.783388	  0.000000	 -0.263471	  0.000000	 46.519145	  0.000000	  0.000000	  0.000000	  0.000000	  0.612166	  0.000000	 -0.468424	  0.000000	  0.000000	  0.000000
0.003500	227.636467	2157.104421	-64.271989	  0.782464	  0.000000	 -0.263296	  0.000000	 42.886971	  0.000000	  0.000000	  0.000000	  0.000000	  0.613435	  0.000000	 -0.466442	  0.000000	  0.000000	  0.000000
0.004000	230.555602	2145.773289	-59.461055	  0.781513	  0.000000	 -0.263122	  0.000000	 39.237565	  0.000000	  0.000000	  0.000000	  0.000000	  0.614704	  0.000000	 -0.464459	  0.000000	  0.000000	  0.000000
0.004500	233.533027	2134.066094	-54.679322	  0.780537	  0.000000	 -0.262948	  0.000000	 35.579699	  0.000000	  0.000000	  0.000000	  0.000000	  0.615974	  0.000000	 -0.462477	  0.000000	  0.000000	  0.000000
0.005000	236.563931	2121.980061	-49.934997	  0.779534	  0.000000	 -0.262776	  0.000000	 31.922319	  0.000000	  0.000000	  0.000000	  0.000000	  0.617243	  0.000000	 -0.460494	  0.000000	  0.000000	  0.000000
0.005500	239.643244	2109.512297	-45.235694	  0.778504	  0.000000	 -0.262604	  0.000000	 28.274456	  0.000000	  0.000000	  0.000000	  0.000000	  0.618635	  0.000000	 -0.458514	  0.000000	  0.000000	  0.000000
0.006000	242.765652	2096.659849	-40.588496	  0.777448	  0.000000	 -0.262433	  0.000000	 24.645143	  0.000000	  0.000000	  0.000000	  0.000000	  0.620028	  0.000000	 -0.456535	  0.000000	  0.000000	  0.000000
0.006500	245.925612	2083.419724	-36.000042	  0.776365	  0.000000	 -0.262263	  0.000000	 21.043362	  0.000000	  0.000000	  0.000000	  0.000000	  0.621420	  0.000000	 -0.454555	  0.000000	  0.000000	  0.000000
0.007000	249.117360	2069.788898	-31.476656	  0.775254	  0.000000	 -0.262094	  0.000000	 17.478005	  0.000000	  0.000000	  0.000000	  0.000000	  0.622812	  0.000000	 -0.452575	  0.000000	  0.000000	  0.000000
0.007500	252.334949	2055.764310	-27.024502	  0.774115	  0.000000	 -0.261926	  0.000000	 13.957855	  0.000000	  0.000000	  0.000000	  0.000000	  0.624205	  0.000000	 -0.450596	  0.000000	  0.000000	  0.000000
0.008000	255.572300	2041.342870	-22.649747	  0.772947	  0.000000	 -0.261759	  0.000000	 10.491572	  0.000000	  0.000000	  0.000000	  0.000000	  0.625597	  0.000000	 -0.448616	  0.000000	  0.000000	  0.000000
0.008500	258.823274	2026.521481	-18.358725	  0.771748	  0.000000	 -0.261592	  0.000000	  7.087684	  0.000000	  0.000000	  0.000000	  0.000000	  0.626989	  0.000000	 -0.446636	  0.000000	  0.000000	  0.000000
0.009000	262.081752	2011.297071	-14.158076	  0.770517	  0.000000	 -0.261426	  0.000000	  3.754560	  0.000000	  0.000000	  0.000000	  0.000000	  0.628381	  0.000000	 -0.444656	  0.000000	  0.000000	  0.000000
